<?xml version="1.0" ?><svg height="128" id="icons" viewBox="0 0 128 128" width="128" xmlns="http://www.w3.org/2000/svg"><defs><style>.cls-1{fill:#61c4f2;}.cls-2{fill:#f86464;}.cls-3{fill:none;stroke:#263357;stroke-linecap:round;stroke-linejoin:round;stroke-width:3px;}.cls-4{fill:#263357;}</style></defs><title/><path class="cls-1" d="M81.15,70.57,74.83,81.51l-6.84-4,6.32-10.93-6-3.46L81.72,40A34,34,0,0,0,21.1,58.32C19.6,78,35.81,94.42,55,95v-4.5A1.47,1.47,0,0,1,56.47,89H74.28A34,34,0,0,0,86.54,73.68ZM38,66a6,6,0,1,1,6-6A6,6,0,0,1,38,66ZM53,84a5,5,0,1,1,5-5A5,5,0,0,1,53,84Zm6-34a5,5,0,1,1,5-5A5,5,0,0,1,59,50Z"/><path class="cls-2" d="M107.54,83.93c.55-11.64-6.09-16.7-6.09-16.7a9.09,9.09,0,0,0,6.64-4.92,10.69,10.69,0,0,0,0-8.87s13.31,10,13.64,26.05c.36,17.2-16.11,27.91-16.11,27.91S98,97.32,96.68,97.28,107,95.57,107.54,83.93Z"/><path class="cls-2" d="M80.37,70.07,98.11,39l6.66,3.33-3.32,5.81s-6.8-1.78-9.74,4.45a13.54,13.54,0,0,0,.4,11.89L87,73.4Z"/><polygon class="cls-2" points="95.9 35.7 101.44 25.72 106.98 29.05 100.33 39.02 95.9 35.7"/><rect class="cls-1" height="8" width="51" x="66" y="111"/><rect class="cls-3" height="9" width="52" x="65.5" y="110.5"/><polyline class="cls-3" points="102.71 47.09 105.61 42.06 86.8 31.19 68.33 63.16 87.14 74.03 92.57 64.63"/><rect class="cls-3" height="7.9" transform="translate(-26.86 101.57) rotate(-59.98)" width="12.63" x="68.26" y="70.11"/><rect class="cls-3" height="11.85" transform="translate(22.67 101.6) rotate(-59.98)" width="12.63" x="93.05" y="25.23"/><rect class="cls-3" height="19.75" rx="2.41" ry="2.41" transform="translate(32.87 101.61) rotate(-59.98)" width="5.83" x="101.56" y="12.45"/><path class="cls-3" d="M77.48,109.56c0-7.18,6.08-13,13.57-13s13.57,5.83,13.57,13"/><polyline class="cls-3" points="55.5 95.5 92.5 95.5 92.5 89.5 62.5 89.5"/><line class="cls-3" x1="68.6" x2="76.89" y1="95.68" y2="105.12"/><path class="cls-3" d="M105.26,106.9a29,29,0,0,0,16.24-26V77.39a29,29,0,0,0-11.8-23.27"/><path class="cls-3" d="M101.47,67.57a16,16,0,0,1,6,12.34v2c0,6.85-4.6,12.77-11.13,15.33"/><circle class="cls-3" cx="99.9" cy="57.33" r="10.03"/><circle class="cls-2" cx="99.9" cy="57.33" r="4.13"/><path class="cls-3" d="M48,94.66A34,34,0,1,1,77.09,35.24"/><line class="cls-3" x1="55.5" x2="55.5" y1="17.5" y2="26.5"/><circle class="cls-4" cx="55.5" cy="11.5" r="2.5"/><line class="cls-3" x1="11.5" x2="20.5" y1="61.5" y2="61.5"/><circle class="cls-4" cx="5.5" cy="61.5" r="2.5"/><line class="cls-3" x1="24.22" x2="30.58" y1="30.14" y2="36.5"/><circle class="cls-4" cx="19.5" cy="25.5" r="2.5"/><line class="cls-3" x1="24.22" x2="30.58" y1="92.36" y2="86"/><circle class="cls-4" cx="19.5" cy="96.5" r="2.5"/><line class="cls-3" x1="38.83" x2="42.27" y1="20.74" y2="29.05"/><circle class="cls-4" cx="36.5" cy="15.5" r="2.5"/><line class="cls-3" x1="72.17" x2="68.73" y1="20.74" y2="29.05"/><circle class="cls-4" cx="74.5" cy="15.5" r="2.5"/><line class="cls-3" x1="15.02" x2="23.33" y1="78.23" y2="74.78"/><circle class="cls-4" cx="9.5" cy="80.5" r="2.5"/><line class="cls-3" x1="14.76" x2="23.08" y1="44.38" y2="47.83"/><circle class="cls-4" cx="8.5" cy="41.5" r="2.5"/><line class="cls-3" x1="38.58" x2="42.02" y1="101.87" y2="93.56"/><circle class="cls-4" cx="35.5" cy="107.5" r="2.5"/><circle class="cls-3" cx="59" cy="45" r="5.5"/><circle class="cls-3" cx="38" cy="60" r="6.5"/><circle class="cls-3" cx="53" cy="79" r="4.5"/></svg>