<?xml version="1.0" ?><!DOCTYPE svg  PUBLIC '-//W3C//DTD SVG 1.1//EN'  'http://www.w3.org/Graphics/SVG/1.1/DTD/svg11.dtd'><svg enable-background="new 0 0 256 256" height="256px" id="Layer_1" version="1.1" viewBox="0 0 256 256" width="256px" xml:space="preserve" xmlns="http://www.w3.org/2000/svg" xmlns:xlink="http://www.w3.org/1999/xlink"><path d="M184.184,171.9l16.052-22.232c1.207-1.673,0.831-4.008-0.842-5.215c-1.677-1.206-4.008-0.829-5.216,0.843  l-16.082,22.276c-0.207,0.289-0.354,0.603-0.47,0.926c-14.803-7.065-31.593-11.072-49.403-11.072  c-17.498,0-34.004,3.874-48.614,10.707c-0.091-0.193-0.195-0.383-0.325-0.563l-16.082-22.274c-1.205-1.671-3.537-2.048-5.212-0.842  c-1.674,1.206-2.051,3.541-0.844,5.211l15.777,21.855c-30.483,16.862-51.208,47.23-52.488,82.167H236.01  C234.737,219.008,214.3,188.835,184.184,171.9z" fill="#B6D152"/><path d="M76.088,182.551c-0.535,0-1.054-0.278-1.339-0.775c-0.425-0.739-0.17-1.682,0.571-2.106  c2.103-1.207,4.297-2.361,6.517-3.43c0.769-0.369,1.689-0.046,2.061,0.721c0.369,0.768,0.046,1.689-0.722,2.06  c-2.155,1.036-4.281,2.154-6.323,3.327C76.612,182.484,76.349,182.551,76.088,182.551z" fill="#F1F2F2"/><path d="M40.62,218.338c-0.249,0-0.501-0.061-0.735-0.188c-0.749-0.407-1.025-1.345-0.618-2.092  c6.964-12.792,17.29-24.041,29.862-32.53c0.707-0.479,1.665-0.292,2.142,0.415c0.476,0.706,0.291,1.664-0.416,2.142  c-12.163,8.214-22.148,19.088-28.877,31.448C41.697,218.047,41.167,218.338,40.62,218.338z" fill="#F1F2F2"/><g><path d="M162.77,205.373c0,20.409-10.768,38.296-26.924,48.313H236.01c-1.272-34.679-21.71-64.852-51.826-81.786   l16.052-22.232c1.207-1.673,0.831-4.008-0.842-5.215c-1.677-1.206-4.008-0.829-5.216,0.843l-16.082,22.276   c-0.207,0.289-0.354,0.603-0.47,0.926c-12.364-5.9-26.114-9.658-40.688-10.738C152.483,167.896,162.77,185.429,162.77,205.373z" fill="#9FB543"/></g><path d="M236.01,256H20.435c-0.628,0-1.23-0.256-1.667-0.708c-0.435-0.452-0.668-1.063-0.645-1.69  c1.244-33.957,20.406-64.734,51.416-82.82L55.27,151.019c-0.946-1.309-1.325-2.909-1.066-4.503c0.257-1.596,1.12-2.994,2.433-3.94  c1.04-0.748,2.261-1.143,3.536-1.143c1.938,0,3.773,0.938,4.906,2.509l15.356,21.27c14.987-6.703,31.054-10.1,47.788-10.1  c17.023,0,33.329,3.502,48.499,10.411l15.581-21.581c1.134-1.571,2.969-2.508,4.907-2.508c1.274,0,2.496,0.394,3.534,1.141  c2.705,1.955,3.318,5.742,1.368,8.445l-14.552,20.157c30.609,18.14,49.528,48.77,50.762,82.425c0.022,0.627-0.211,1.238-0.646,1.69  C237.239,255.744,236.639,256,236.01,256z M22.868,251.373h210.71c-2.017-31.896-20.764-60.719-50.527-77.456  c-0.574-0.323-0.984-0.876-1.126-1.52s-0.001-1.317,0.384-1.852l16.053-22.233c0.456-0.634,0.313-1.525-0.323-1.984  c-0.308-0.221-0.619-0.267-0.828-0.267c-0.464,0-0.886,0.214-1.156,0.589l-16.082,22.276c-0.053,0.074-0.11,0.194-0.173,0.362  c-0.223,0.613-0.693,1.104-1.297,1.35c-0.605,0.246-1.285,0.228-1.874-0.053c-15.076-7.198-31.363-10.848-48.405-10.848  c-16.727,0-32.752,3.53-47.634,10.491c-1.154,0.536-2.52,0.048-3.069-1.102c-0.033-0.071-0.069-0.145-0.119-0.212l-16.075-22.268  c-0.271-0.373-0.69-0.588-1.153-0.588c-0.208,0-0.521,0.047-0.833,0.271c-0.306,0.22-0.509,0.548-0.569,0.923  c-0.061,0.374,0.029,0.748,0.25,1.055l15.778,21.855c0.389,0.537,0.527,1.214,0.382,1.86c-0.145,0.646-0.558,1.198-1.137,1.519  C43.885,190.227,24.896,219.188,22.868,251.373z" fill="#594A42"/><circle cx="88.677" cy="203.364" fill="#594A42" r="10.276"/><path d="M175.021,209.418c-1.009,0-1.934-0.664-2.224-1.683c-0.623-2.186-2.151-4.007-4.198-4.995  c-1.915-0.929-4.074-1.053-6.081-0.354c-2.008,0.698-3.625,2.138-4.55,4.051c-0.183,0.375-0.339,0.773-0.466,1.193  c-0.373,1.224-1.664,1.914-2.888,1.541c-1.221-0.371-1.911-1.665-1.541-2.888c0.198-0.653,0.447-1.282,0.732-1.868  c1.46-3.02,4.015-5.297,7.191-6.4c3.175-1.102,6.593-0.906,9.618,0.559c3.231,1.563,5.648,4.44,6.632,7.896  c0.349,1.229-0.363,2.51-1.594,2.858C175.444,209.389,175.23,209.418,175.021,209.418z" fill="#594A42"/><path d="M127.464,230.291c-6.522,0-12.772-2.023-15.944-5.518c-0.479-0.526-0.891-1.089-1.217-1.668  c-0.628-1.114-0.235-2.525,0.879-3.152c1.112-0.632,2.521-0.236,3.151,0.877c0.155,0.276,0.361,0.555,0.611,0.829  c3.222,3.553,11.841,5.029,18.813,3.23c3.38-0.872,5.944-2.416,6.859-4.13c0.599-1.128,2.003-1.553,3.13-0.952  c1.126,0.602,1.553,2.002,0.951,3.13c-1.559,2.923-5.032,5.208-9.783,6.434C132.496,229.994,129.961,230.291,127.464,230.291z" fill="#594A42"/><g><g><path d="M134.17,227.538c-1.922,0.496-3.942,0.763-5.947,0.826v5.706c0,3.727,3.021,6.748,6.748,6.748    s6.749-3.021,6.749-6.748v-10.705C140.259,225.125,137.679,226.633,134.17,227.538z" fill="#DD5A4B"/><path d="M134.971,243.133c-4.996,0-9.061-4.066-9.061-9.063v-5.706c0-1.25,0.991-2.274,2.239-2.313    c1.906-0.061,3.736-0.314,5.443-0.755c2.884-0.743,5.138-1.955,6.346-3.409c0.623-0.751,1.648-1.032,2.566-0.698    c0.916,0.331,1.528,1.201,1.528,2.176v10.705C144.033,239.066,139.968,243.133,134.971,243.133z M130.537,230.527v3.543    c0,2.445,1.988,4.435,4.434,4.435s4.436-1.989,4.436-4.435v-6.039c-1.364,0.713-2.927,1.302-4.658,1.748    C133.396,230.127,131.988,230.377,130.537,230.527z" fill="#594A42"/></g></g></svg>