<svg version="1.1" viewBox="0.0 0.0 915.2099737532808 363.5196850393701" fill="none" stroke="none" stroke-linecap="square" stroke-miterlimit="10" xmlns:xlink="http://www.w3.org/1999/xlink" xmlns="http://www.w3.org/2000/svg"><clipPath id="p.0"><path d="m0 0l915.20996 0l0 363.51968l-915.20996 0l0 -363.51968z" clip-rule="nonzero"/></clipPath><g clip-path="url(#p.0)"><path fill="#000000" fill-opacity="0.0" d="m0 0l915.20996 0l0 363.51968l-915.20996 0z" fill-rule="evenodd"/><path fill="#000000" fill-opacity="0.0" d="m31.797901 178.09186l0 0c0 -84.09513 67.31946 -152.26772 150.36221 -152.26772l0 0c39.878525 0 78.12373 16.042446 106.32213 44.59818c28.198395 28.55574 44.04007 67.28562 44.04007 107.66953l0 0c0 84.09515 -67.31946 152.26773 -150.3622 152.26773l0 0c-83.042755 0 -150.36221 -68.17258 -150.36221 -152.26773z" fill-rule="evenodd"/><path stroke="#93c47d" stroke-width="16.0" stroke-linejoin="round" stroke-linecap="butt" d="m31.797901 178.09186l0 0c0 -84.09513 67.31946 -152.26772 150.36221 -152.26772l0 0c39.878525 0 78.12373 16.042446 106.32213 44.59818c28.198395 28.55574 44.04007 67.28562 44.04007 107.66953l0 0c0 84.09515 -67.31946 152.26773 -150.3622 152.26773l0 0c-83.042755 0 -150.36221 -68.17258 -150.36221 -152.26773z" fill-rule="evenodd"/><path fill="#ffffff" d="m51.41119 178.07939l0 0c0 -73.11902 58.534367 -132.3937 130.74016 -132.3937l0 0c34.67444 0 67.92871 13.948582 92.44725 38.777214c24.518524 24.828636 38.292908 58.503494 38.292908 93.616486l0 0c0 73.11902 -58.534363 132.39369 -130.74016 132.39369l0 0c-72.205795 0 -130.74016 -59.274673 -130.74016 -132.39369z" fill-rule="evenodd"/><path stroke="#434343" stroke-width="16.0" stroke-linejoin="round" stroke-linecap="round" d="m51.41119 178.07939l0 0c0 -73.11902 58.534367 -132.3937 130.74016 -132.3937l0 0c34.67444 0 67.92871 13.948582 92.44725 38.777214c24.518524 24.828636 38.292908 58.503494 38.292908 93.616486l0 0c0 73.11902 -58.534363 132.39369 -130.74016 132.39369l0 0c-72.205795 0 -130.74016 -59.274673 -130.74016 -132.39369z" fill-rule="evenodd"/><path fill="#000000" fill-opacity="0.0" d="m104.123245 252.60213l98.96063 -153.51181" fill-rule="evenodd"/><path stroke="#434343" stroke-width="16.0" stroke-linejoin="round" stroke-linecap="round" d="m104.123245 252.60213l98.96063 -153.51181" fill-rule="evenodd"/><path fill="#000000" fill-opacity="0.0" d="m76.66381 253.66614l210.99213 -1.0708618" fill-rule="evenodd"/><path stroke="#434343" stroke-width="16.0" stroke-linejoin="round" stroke-linecap="round" d="m76.66381 253.66614l210.99213 -1.0708618" fill-rule="evenodd"/><path fill="#000000" fill-opacity="0.0" d="m267.79614 252.60213l-98.96063 -153.51181" fill-rule="evenodd"/><path stroke="#434343" stroke-width="16.0" stroke-linejoin="round" stroke-linecap="round" d="m267.79614 252.60213l-98.96063 -153.51181" fill-rule="evenodd"/><path fill="#434343" d="m143.61392 250.75165l41.81102 -72.31496l41.81102 72.31496z" fill-rule="evenodd"/><path fill="#000000" fill-opacity="0.0" d="m364.46326 134.97113l100.37796 0l0 180.97638l-100.37796 0z" fill-rule="evenodd"/><path fill="#434343" d="m396.1195 163.7055q5.203125 2.609375 9.625 5.984375l-2.078125 3.90625q-4.6875 -3.640625 -8.859375 -5.984375q-3.125 6.25 -11.453125 7.8125l-2.59375 -3.90625q10.921875 -2.34375 10.921875 -10.9375l0 -7.28125l4.171875 0q2.078125 0.25 0.265625 1.5625l0 8.84375zm25.25 2.609375q-2.59375 6.25 -12.75 8.84375l-1.5625 -4.421875q10.9375 -1.5625 10.9375 -10.421875l0 -6.5l4.15625 0q2.078125 0.265625 0.265625 1.5625l0 2.859375q0.515625 8.328125 13.796875 12.5l-2.078125 3.90625q-9.125 -2.34375 -12.765625 -8.328125zm13.015625 -9.109375q2.09375 1.03125 -0.25 1.546875q-1.046875 2.609375 -3.65625 6.25l-4.15625 -2.078125q2.34375 -3.390625 3.640625 -7.03125l4.421875 1.3125zm-26.03125 8.328125q1.046875 -4.171875 1.5625 -9.109375l4.421875 0.515625q-0.25 4.421875 -1.296875 9.109375l-4.6875 -0.515625zm-2.078125 -7.5625q1.296875 1.046875 -0.53125 1.3125q-1.296875 3.125 -3.125 5.71875l-3.640625 -2.078125q1.828125 -2.859375 3.125 -6.5l4.171875 1.546875zm28.109375 29.4375l-5.203125 0l0 -6.78125l-44.515625 0l0 6.78125l-5.21875 0l0 -11.71875l54.9375 0l0 11.71875zm-10.921875 26.296875l0 -1.828125l-33.59375 0l0 1.828125l-5.203125 0l0 -14.59375l17.4375 0l0.78125 -3.375l-13.53125 0l0 -11.71875l35.140625 0l0 11.71875l-16.40625 0l-1.03125 3.375l21.609375 0l0 14.59375l-5.203125 0zm-33.59375 -6.0l33.59375 0l0 -4.421875l-33.59375 0l0 4.421875zm4.6875 -16.140625l24.734375 0l0 -3.375l-24.734375 0l0 3.375zm-6.515625 -33.59375q-0.25 4.4375 -2.078125 8.59375l-4.421875 -1.03125q1.5625 -3.125 2.078125 -8.328125l4.421875 0.765625z" fill-rule="nonzero"/><path fill="#434343" d="m410.182 274.68988q-11.71875 10.421875 -27.34375 16.40625l-2.34375 -5.203125q16.921875 -5.46875 28.375 -16.40625q-0.78125 -1.296875 -1.8125 -2.609375q-11.71875 9.109375 -22.65625 12.234375l-2.078125 -4.6875q12.484375 -3.375 21.609375 -10.671875q-1.046875 -1.5625 -2.34375 -2.078125q-9.640625 5.984375 -20.046875 7.8125l-1.828125 -4.953125q14.578125 -2.078125 24.46875 -9.625l-16.921875 0l0 -4.953125l39.0625 0l0 4.953125l-15.625 0q-2.078125 2.34375 -5.46875 4.6875q4.421875 2.859375 7.03125 6.25q9.375 -5.21875 13.28125 -9.640625l4.9375 3.640625q1.046875 1.5625 -1.03125 1.3125q-6.25 3.90625 -13.546875 7.28125q6.78125 8.859375 19.265625 15.359375l-3.640625 5.734375q-10.671875 -7.546875 -16.40625 -15.625q1.3125 10.421875 -0.515625 15.109375q-1.5625 4.15625 -7.03125 4.15625l-6.765625 0l-1.046875 -5.71875l5.984375 0q3.90625 0 4.4375 -3.390625q0.515625 -3.90625 0 -9.375zm-0.78125 -34.375l24.734375 0l0 13.546875l-5.21875 0l0 -8.59375l-44.515625 0l0 8.59375l-5.203125 0l0 -13.546875l24.203125 0l0 -5.71875l5.734375 0q2.078125 0.265625 0.265625 1.5625l0 4.15625z" fill-rule="nonzero"/><path fill="#000000" fill-opacity="0.0" d="m452.82806 129.23885l431.90552 0l0 135.74803l-431.90552 0z" fill-rule="evenodd"/><path fill="#434343" d="m505.70306 176.02383q0.890625 -1.21875 1.9375 -1.828125q1.0625 -0.609375 2.28125 -0.609375q2.109375 0 3.4375 1.453125q1.34375 1.453125 1.34375 4.921875l0 8.15625q0 3.46875 -1.34375 4.953125q-1.328125 1.46875 -3.4375 1.46875q-1.921875 0 -3.09375 -1.078125q-1.171875 -1.078125 -1.734375 -4.03125q-0.328125 -1.96875 -1.3125 -3.046875q-1.921875 -2.109375 -5.375 -3.375q-3.4375 -1.265625 -6.90625 -1.265625q-4.3125 0 -7.921875 1.875q-3.609375 1.875 -6.375 6.09375q-2.765625 4.21875 -2.765625 10.03125l0 6.234375q0 6.9375 5.03125 11.578125q5.046875 4.640625 14.0 4.640625q5.34375 0 9.046875 -1.453125q2.15625 -0.84375 4.59375 -3.328125q1.5 -1.5 2.34375 -1.9375q0.84375 -0.453125 1.921875 -0.453125q1.921875 0 3.375 1.453125q1.453125 1.453125 1.453125 3.421875q0 1.96875 -1.96875 4.21875q-2.859375 3.28125 -7.359375 5.15625q-6.046875 2.53125 -13.359375 2.53125q-8.53125 0 -15.375 -3.515625q-5.53125 -2.8125 -9.421875 -8.875q-3.890625 -6.078125 -3.890625 -13.25l0 -6.515625q0 -7.5 3.484375 -13.984375q3.5 -6.5 9.6875 -10.015625q6.1875 -3.515625 13.125 -3.515625q4.171875 0 7.796875 0.96875q3.640625 0.953125 6.78125 2.921875zm54.28125 38.90625l-23.34375 0l-2.34375 5.859375l2.34375 0q3.46875 0 4.9375 1.34375q1.484375 1.328125 1.484375 3.484375q0 2.109375 -1.484375 3.453125q-1.46875 1.328125 -4.9375 1.328125l-12.9375 0q-3.46875 0 -4.9375 -1.328125q-1.484375 -1.34375 -1.484375 -3.5q0 -2.15625 1.546875 -3.515625q1.546875 -1.359375 5.109375 -1.265625l15.09375 -37.59375l-6.28125 0q-3.46875 0 -4.953125 -1.328125q-1.46875 -1.34375 -1.46875 -3.5q0 -2.15625 1.46875 -3.484375q1.484375 -1.34375 4.953125 -1.34375l20.765625 0.046875l19.125 47.203125q3.375 0 4.453125 0.75q2.15625 1.546875 2.15625 4.078125q0 2.109375 -1.453125 3.453125q-1.453125 1.328125 -4.921875 1.328125l-12.9375 0q-3.46875 0 -4.953125 -1.328125q-1.46875 -1.34375 -1.46875 -3.5q0 -2.109375 1.46875 -3.4375q1.484375 -1.34375 4.953125 -1.34375l2.34375 0l-2.296875 -5.859375zm-3.984375 -9.609375l-7.734375 -19.03125l-7.78125 19.03125l15.515625 0zm34.828125 -13.171875l0 28.640625l3.46875 0q3.46875 0 4.9375 1.34375q1.484375 1.328125 1.484375 3.484375q0 2.109375 -1.484375 3.453125q-1.46875 1.328125 -4.9375 1.328125l-12.609375 0q-3.46875 0 -4.9375 -1.328125q-1.484375 -1.34375 -1.484375 -3.5q0 -2.109375 1.453125 -3.4375q1.453125 -1.34375 4.5 -1.34375l0 -37.59375q-2.53125 -0.234375 -3.828125 -1.546875q-1.28125 -1.3125 -1.28125 -3.28125q0 -2.15625 1.46875 -3.484375q1.484375 -1.34375 4.953125 -1.34375l10.546875 0.046875l13.078125 28.921875l12.84375 -28.96875l10.640625 0.046875q3.46875 0 4.9375 1.3125q1.484375 1.3125 1.484375 3.46875q0 1.96875 -1.3125 3.28125q-1.3125 1.3125 -3.796875 1.546875l0 37.59375q3.046875 0 4.5 1.359375q1.453125 1.359375 1.453125 3.46875q0 2.109375 -1.484375 3.453125q-1.46875 1.328125 -4.9375 1.328125l-12.65625 0q-3.421875 0 -4.90625 -1.328125q-1.46875 -1.34375 -1.46875 -3.5q0 -2.109375 1.46875 -3.4375q1.484375 -1.34375 4.90625 -1.34375l3.515625 0l0 -28.640625l-11.015625 24.75l-8.34375 0l-11.15625 -24.75zm67.078125 18.75l0 9.890625l9.703125 0q3.46875 0 4.9375 1.34375q1.484375 1.328125 1.484375 3.484375q0 2.109375 -1.484375 3.453125q-1.46875 1.328125 -4.9375 1.328125l-20.8125 0q-3.46875 0 -4.953125 -1.328125q-1.46875 -1.34375 -1.46875 -3.5q0 -2.109375 1.5 -3.4375q1.5 -1.34375 4.921875 -1.34375l1.5 0l0 -37.59375l-1.5 0q-3.46875 0 -4.953125 -1.328125q-1.46875 -1.34375 -1.46875 -3.5q0 -2.15625 1.46875 -3.484375q1.484375 -1.34375 4.953125 -1.34375l22.125 0.046875q9.75 0 15.4375 5.328125q5.703125 5.3125 5.703125 12.953125q0 4.21875 -1.921875 7.96875q-1.453125 2.8125 -4.859375 5.5625q-3.390625 2.734375 -6.9375 4.125q-3.53125 1.375 -9.34375 1.375l-9.09375 0zm0 -9.609375l8.90625 0q6.28125 0 9.953125 -2.828125q3.6875 -2.84375 3.6875 -6.828125q0 -3.375 -2.984375 -5.90625q-2.96875 -2.53125 -8.5 -2.53125l-11.0625 0l0 18.09375zm67.96875 -18.09375l0 37.59375l9.703125 0q3.46875 0 4.9375 1.34375q1.484375 1.328125 1.484375 3.484375q0 2.109375 -1.484375 3.453125q-1.46875 1.328125 -4.9375 1.328125l-29.015625 0q-3.46875 0 -4.953125 -1.328125q-1.46875 -1.34375 -1.46875 -3.5q0 -2.109375 1.46875 -3.4375q1.484375 -1.34375 4.953125 -1.34375l9.703125 0l0 -37.59375l-9.703125 0q-3.46875 0 -4.953125 -1.328125q-1.46875 -1.34375 -1.46875 -3.5q0 -2.15625 1.46875 -3.484375q1.484375 -1.34375 4.953125 -1.34375l29.015625 0.046875q3.46875 0 4.9375 1.3125q1.484375 1.3125 1.484375 3.46875q0 2.15625 -1.484375 3.5q-1.46875 1.328125 -4.9375 1.328125l-9.703125 0zm79.78125 18.796875q0 12.796875 -8.140625 21.3125q-8.125 8.5 -18.8125 8.5q-9.609375 0 -17.34375 -7.078125q-9.5625 -8.765625 -9.5625 -22.734375q0 -13.96875 9.5625 -22.78125q7.734375 -7.078125 17.34375 -7.078125q10.6875 0 18.8125 8.515625q8.140625 8.5 8.140625 21.34375zm-9.609375 0q0 -8.765625 -5.296875 -14.5q-5.296875 -5.75 -12.046875 -5.75q-6.703125 0 -12.0 5.765625q-5.296875 5.765625 -5.296875 14.484375q0 8.71875 5.296875 14.46875q5.296875 5.734375 12.0 5.734375q6.75 0 12.046875 -5.71875q5.296875 -5.71875 5.296875 -14.484375zm28.21875 -10.265625l0 29.0625l3.46875 0q3.46875 0 4.9375 1.34375q1.484375 1.328125 1.484375 3.484375q0 2.109375 -1.484375 3.453125q-1.46875 1.328125 -4.9375 1.328125l-12.609375 0q-3.46875 0 -4.953125 -1.328125q-1.46875 -1.34375 -1.46875 -3.5q0 -2.0625 1.453125 -3.421875q1.453125 -1.359375 4.5 -1.359375l0 -37.59375l-1.5 0q-3.46875 0 -4.953125 -1.328125q-1.46875 -1.34375 -1.46875 -3.5q0 -2.15625 1.46875 -3.484375q1.484375 -1.34375 4.953125 -1.34375l11.109375 0.046875l24.5625 38.53125l0 -28.921875l-3.46875 0q-3.46875 0 -4.953125 -1.328125q-1.46875 -1.34375 -1.46875 -3.5q0 -2.15625 1.46875 -3.484375q1.484375 -1.34375 4.953125 -1.34375l12.609375 0.046875q3.46875 0 4.9375 1.3125q1.484375 1.3125 1.484375 3.46875q0 2.109375 -1.453125 3.46875q-1.453125 1.359375 -4.453125 1.359375l0 47.203125l-9.515625 0l-24.703125 -38.671875z" fill-rule="nonzero"/><path fill="#000000" fill-opacity="0.0" d="m464.84262 236.7664l407.874 0l0 79.18111l-407.874 0z" fill-rule="evenodd"/><path fill="#434343" d="m495.99887 285.61078q5.96875 -1.546875 10.21875 -3.46875q-1.546875 -0.96875 -3.46875 -2.703125q-1.9375 1.9375 -3.859375 3.28125l-2.109375 -2.703125q5.390625 -4.234375 7.3125 -8.28125l3.28125 0.765625q0.765625 0.78125 -0.578125 0.96875l-0.96875 1.546875l9.0624695 0l0.578125 -0.578125l2.6875 1.34375q1.15625 0.765625 -0.578125 0.96875q-2.890625 3.078125 -6.1562195 5.390625q3.2655945 1.34375 9.6249695 2.3125l-0.765625 3.28125l-2.890625 -0.578125l0 10.59375l-3.28125 0l0 -1.546875l-9.6249695 0l0 1.9375l-3.28125 0l0 -10.609375q-2.890625 0.96875 -4.234375 1.15625l-0.96875 -3.078125zm20.421844 1.15625q-3.46875 -0.578125 -7.7030945 -2.703125q-1.546875 0.96875 -6.171875 2.703125l13.8749695 0zm-2.3125 7.125l0 -4.8125l-9.6249695 0l0 4.8125l9.6249695 0zm-5.3905945 -13.09375q2.703125 -2.125 4.0468445 -3.46875l-8.0937195 0l-0.1875 0.375q2.890625 2.125 4.234375 3.09375zm-16.375 -0.578125l0 -4.046875l-9.640625 0l0 4.046875l9.640625 0zm-9.4375 13.09375l3.078125 -0.375l0 -10.40625l-3.28125 0l-3.265625 0l0 -8.671875l16.1875 0l0 8.671875l-6.359375 0l0 2.3125l5.96875 0l0 3.078125l-5.96875 0l0 4.4375l7.890625 -1.359375l0 3.09375l-18.296875 3.265625q-0.96875 1.359375 -1.15625 0.390625l-0.96875 -3.46875l2.890625 -0.390625l0 -9.4375l3.078125 0q1.546875 0.1875 0.203125 1.15625l0 7.703125zm11.75 -24.28125l0 2.3125l-11.5625 0l0 -2.3125l11.5625 0zm0 -2.296875l-11.5625 0l0 -2.3125l11.5625 0l0 2.3125zm19.078094 4.609375l-11.3749695 0l0 -2.3125l11.3749695 0l0 2.3125zm0 -4.609375l-11.3749695 0l0 -2.3125l11.3749695 0l0 2.3125zm-32.37497 -4.625l0 5.203125l-3.859375 0l0 -8.296875l19.28125 0l0 -2.3125l-15.609375 0l0 -3.078125l34.296844 0l0 3.078125l-15.4218445 0l0 2.3125l19.46872 0l0 7.71875l-3.859375 0l0 -4.625l-15.6093445 0l0 10.390625l-3.265625 0l0 -10.390625l-15.421875 0zm58.578094 -1.734375q3.859375 1.921875 7.125 4.421875l-1.53125 2.890625q-3.46875 -2.6875 -6.5625 -4.421875q-2.3125 4.625 -8.46875 5.765625l-1.9375 -2.875q8.09375 -1.734375 8.09375 -8.09375l0 -5.40625l3.09375 0q1.53125 0.203125 0.1875 1.15625l0 6.5625zm18.6875 1.921875q-1.921875 4.625 -9.4375 6.546875l-1.15625 -3.265625q8.09375 -1.15625 8.09375 -7.71875l0 -4.8125l3.078125 0q1.546875 0.1875 0.1875 1.15625l0 2.125q0.390625 6.15625 10.21875 9.25l-1.546875 2.875q-6.734375 -1.71875 -9.4375 -6.15625zm9.640625 -6.75q1.53125 0.78125 -0.203125 1.15625q-0.765625 1.9375 -2.6875 4.625l-3.09375 -1.53125q1.734375 -2.515625 2.703125 -5.203125l3.28125 0.953125zm-19.28125 6.171875q0.78125 -3.078125 1.15625 -6.75l3.28125 0.390625q-0.1875 3.28125 -0.96875 6.75l-3.46875 -0.390625zm-1.53125 -5.59375q0.953125 0.78125 -0.390625 0.96875q-0.953125 2.3125 -2.3125 4.234375l-2.6875 -1.53125q1.34375 -2.125 2.3125 -4.828125l3.078125 1.15625zm20.8125 21.78125l-3.859375 0l0 -5.015625l-32.953125 0l0 5.015625l-3.84375 0l0 -8.671875l40.65625 0l0 8.671875zm-8.09375 19.453125l0 -1.34375l-24.859375 0l0 1.34375l-3.859375 0l0 -10.78125l12.921875 0l0.578125 -2.515625l-10.03125 0l0 -8.671875l26.015625 0l0 8.671875l-12.140625 0l-0.765625 2.515625l15.984375 0l0 10.78125l-3.84375 0zm-24.859375 -4.421875l24.859375 0l0 -3.28125l-24.859375 0l0 3.28125zm3.46875 -11.953125l18.296875 0l0 -2.5l-18.296875 0l0 2.5zm-4.8125 -24.859375q-0.203125 3.28125 -1.546875 6.359375l-3.28125 -0.765625q1.15625 -2.3125 1.546875 -6.171875l3.28125 0.578125z" fill-rule="nonzero"/><path fill="#434343" d="m590.73505 303.5014l0 -46.28125l3.78125 0l0 46.28125l-3.78125 0z" fill-rule="nonzero"/><path fill="#434343" d="m651.45685 265.76703q-4.046875 -2.890625 -7.328125 -8.671875q-2.3125 5.390625 -5.78125 8.671875l13.109375 0zm-18.5 6.546875l24.46875 0l0 21.96875q0 2.890625 -2.3125 2.890625l-2.890625 0l-0.765625 -3.078125l1.921875 0q0.765625 0 0.765625 -0.78125l0 -8.09375l-4.046875 0l0 10.796875l-3.265625 0l0 -10.796875l-3.671875 0l0 10.984375l-3.265625 0l0 -10.984375l-3.65625 0l0 11.953125l-3.28125 0l0 -24.859375zm17.140625 3.078125l0 6.75l4.046875 0l0 -6.75l-4.046875 0zm-6.9375 0l0 6.75l3.671875 0l0 -6.75l-3.671875 0zm-6.921875 0l0 6.75l3.65625 0l0 -6.75l-3.65625 0zm10.96875 -21.765625q0.78125 0.765625 -0.578125 0.96875q4.625 7.703125 13.5 11.171875l-2.125 3.84375q-3.65625 -1.71875 -5.390625 -3.078125l0 2.890625l-14.84375 0l0 -3.078125q-2.5 2.5 -5.390625 4.421875l-2.3125 -3.65625q8.09375 -4.625 11.75 -14.25l5.390625 0.765625zm-26.96875 31.21875l0 7.3125l5.96875 0l0 -7.3125l-5.96875 0zm9.25 11.75l-3.28125 0l0 -1.34375l-5.96875 0l0 2.3125l-3.28125 0l0 -15.8125l12.53125 0l0 14.84375zm-11.5625 -21.96875l10.796875 0l0 3.65625l-10.796875 0l0 -3.65625zm0 -6.9375l10.796875 0l0 3.65625l-10.796875 0l0 -3.65625zm-2.3125 -6.734375l16.0 0l0 3.65625l-16.0 0l0 -3.65625zm2.3125 -6.75l10.796875 0l0 3.65625l-10.796875 0l0 -3.65625zm48.5625 35.453125q-0.203125 1.34375 -0.96875 0.578125l-0.96875 -4.046875l5.40625 -1.34375l0 -16.390625l-4.828125 0l0 -3.65625l4.828125 0l0 -10.40625l3.84375 0q1.15625 0.203125 0 1.15625l0 9.25l5.015625 0l0 3.65625l-5.015625 0l0 15.421875l6.359375 -1.734375l0 3.28125q-7.125 2.3125 -13.671875 4.234375zm16.1875 1.34375l0 -11.5625l21.0 0l0 11.5625l-21.0 0zm12.515625 -33.90625l12.71875 0l0 3.078125l-29.484375 0l0 -3.078125l12.90625 0l0 -4.234375l3.671875 0q1.53125 0.1875 0.1875 1.15625l0 3.078125zm-10.984375 7.703125l0 10.40625l17.921875 0l0 -10.40625l-17.921875 0zm-3.265625 -2.3125l24.46875 0l0 15.03125l-24.46875 0l0 -15.03125zm6.34375 4.625l11.765625 0l0 5.96875l-11.765625 0l0 -5.96875zm21.203125 29.296875l-32.953125 0l0 -3.09375l32.953125 0l0 3.09375zm-22.546875 -10.03125l0 2.3125l14.453125 0l0 -2.3125l-14.453125 0zm0 -4.625l0 2.3125l14.453125 0l0 -2.3125l-14.453125 0zm4.046875 -13.296875l0 3.28125l6.359375 0l0 -3.28125l-6.359375 0z" fill-rule="nonzero"/><path fill="#434343" d="m729.6149 303.5014l0 -46.28125l3.78125 0l0 46.28125l-3.78125 0z" fill-rule="nonzero"/><path fill="#434343" d="m777.03986 270.57953l-3.65625 0q-0.203125 8.28125 -10.796875 10.40625l-1.15625 -3.65625q7.703125 -1.734375 7.90625 -6.75l-8.296875 0l0 26.78125l-3.84375 0l0 -30.4375l10.40625 0l-2.3125 -5.015625l-10.796875 0l0 -3.65625l19.265625 0l0 -5.015625l4.234375 0q1.546875 0.203125 0.203125 1.15625l0 3.859375l19.078125 0l0 3.65625l-9.828125 0l-3.46875 5.015625l11.171875 0l0 27.359375q0 2.703125 -2.5 2.703125l-5.015625 0l-0.765625 -3.671875l3.65625 0q0.765625 0 0.765625 -0.765625l0 -21.96875l-10.40625 0l0 2.890625q0 1.546875 1.359375 1.546875l3.46875 0q0.765625 0 1.15625 -2.3125l3.65625 1.15625q-0.390625 4.8125 -3.078125 4.8125l-7.140625 0q-3.265625 0 -3.265625 -3.28125l0 -4.8125zm5.390625 -8.671875l-12.71875 0l2.515625 5.015625l6.921875 0l3.28125 -5.015625zm-15.796875 19.078125l18.875 0l0 10.796875l-15.59375 0l0 1.734375l-3.28125 0l0 -12.53125zm3.28125 3.078125l0 4.625l12.328125 0l0 -4.625l-12.328125 0zm42.390625 -2.6875l3.84375 -1.546875l0.96875 3.28125l-11.375 5.203125q-0.1875 1.34375 -0.953125 0.578125l-2.125 -4.25l5.78125 -1.921875l0 -14.640625l-4.625 0l0 -3.65625l4.625 0l0 -10.21875l3.65625 0q1.546875 0.1875 0.203125 1.15625l0 9.0625l4.421875 0l0 3.65625l-4.421875 0l0 13.296875zm28.515625 -26.78125q3.46875 1.734375 5.203125 4.421875l-2.890625 2.890625q-1.9375 -2.890625 -5.015625 -4.625l2.703125 -2.6875zm-13.875 20.609375l-5.015625 0l0 4.625q0 10.40625 -8.859375 16.578125l-2.5 -3.46875q7.515625 -4.828125 7.515625 -14.453125l0 -16.375l14.4375 0l0 -9.0625l3.671875 0.1875q1.53125 0.203125 0.1875 1.15625l0 7.71875l10.59375 0l0 3.65625l-10.40625 0l0.203125 3.84375q0.1875 5.59375 0.765625 10.984375q3.078125 -6.359375 4.234375 -11.359375l3.859375 1.921875q0.390625 0.765625 -0.578125 0.96875q-3.078125 8.671875 -5.96875 13.09375q2.890625 5.78125 4.625 5.78125q0.578125 0 1.15625 -5.578125l3.65625 2.109375q-1.15625 8.484375 -3.65625 8.484375q-4.828125 0 -8.484375 -7.515625q-4.8125 5.96875 -10.21875 8.671875l-2.109375 -3.28125q7.3125 -4.421875 10.59375 -9.25q-1.34375 -5.578125 -1.734375 -14.25l-0.1875 -4.625l-10.796875 0l0 5.78125l8.484375 0l-0.203125 11.5625q0 4.625 -2.890625 4.625l-3.65625 0l-0.375 -3.671875l2.6875 0q0.765625 0 0.765625 -0.765625l0.203125 -8.09375z" fill-rule="nonzero"/></g></svg>