<svg version="1.1" viewBox="0.0 0.0 100.0 100.0" fill="none" stroke="none" stroke-linecap="square" stroke-miterlimit="10" xmlns:xlink="http://www.w3.org/1999/xlink" xmlns="http://www.w3.org/2000/svg"><clipPath id="p.0"><path d="m0 0l100.0 0l0 100.0l-100.0 0l0 -100.0z" clip-rule="nonzero"/></clipPath><g clip-path="url(#p.0)"><path fill="#000000" fill-opacity="0.0" d="m0 0l100.0 0l0 100.0l-100.0 0z" fill-rule="evenodd"/><path fill="#000000" fill-opacity="0.0" d="m4.1889763 51.157482l0 0c0 -25.631233 20.510294 -46.40945 45.811024 -46.40945l0 0c12.1498375 0 23.802055 4.889553 32.393288 13.593012c8.591232 8.703461 13.417732 20.507887 13.417732 32.816437l0 0c0 25.63123 -20.510292 46.40945 -45.81102 46.40945l0 0c-25.30073 0 -45.811024 -20.778221 -45.811024 -46.40945z" fill-rule="evenodd"/><path stroke="#93c47d" stroke-width="4.0" stroke-linejoin="round" stroke-linecap="butt" d="m4.1889763 51.157482l0 0c0 -25.631233 20.510294 -46.40945 45.811024 -46.40945l0 0c12.1498375 0 23.802055 4.889553 32.393288 13.593012c8.591232 8.703461 13.417732 20.507887 13.417732 32.816437l0 0c0 25.63123 -20.510292 46.40945 -45.81102 46.40945l0 0c-25.30073 0 -45.811024 -20.778221 -45.811024 -46.40945z" fill-rule="evenodd"/><path fill="#ffffff" d="m10.161465 51.07911l0 0c0 -22.247944 17.831053 -40.283466 39.82677 -40.283466l0 0c10.562717 0 20.69281 4.2441387 28.161781 11.798753c7.4689713 7.554615 11.664993 17.80087 11.664993 28.484713l0 0c0 22.24794 -17.831055 40.283463 -39.826775 40.283463l0 0c-21.995718 0 -39.82677 -18.035522 -39.82677 -40.283463z" fill-rule="evenodd"/><path stroke="#434343" stroke-width="4.0" stroke-linejoin="round" stroke-linecap="round" d="m10.161465 51.07911l0 0c0 -22.247944 17.831053 -40.283466 39.82677 -40.283466l0 0c10.562717 0 20.69281 4.2441387 28.161781 11.798753c7.4689713 7.554615 11.664993 17.80087 11.664993 28.484713l0 0c0 22.24794 -17.831055 40.283463 -39.826775 40.283463l0 0c-21.995718 0 -39.82677 -18.035522 -39.82677 -40.283463z" fill-rule="evenodd"/><path fill="#000000" fill-opacity="0.0" d="m26.212934 73.799324l30.047243 -46.645668" fill-rule="evenodd"/><path stroke="#434343" stroke-width="4.0" stroke-linejoin="round" stroke-linecap="round" d="m26.212934 73.799324l30.047243 -46.645668" fill-rule="evenodd"/><path fill="#000000" fill-opacity="0.0" d="m17.851198 74.1233l64.220474 -0.40944672" fill-rule="evenodd"/><path stroke="#434343" stroke-width="4.0" stroke-linejoin="round" stroke-linecap="round" d="m17.851198 74.1233l64.220474 -0.40944672" fill-rule="evenodd"/><path fill="#000000" fill-opacity="0.0" d="m76.053345 73.799324l-30.047245 -46.645668" fill-rule="evenodd"/><path stroke="#434343" stroke-width="4.0" stroke-linejoin="round" stroke-linecap="round" d="m76.053345 73.799324l-30.047245 -46.645668" fill-rule="evenodd"/><path fill="#434343" d="m38.23833 73.232544l12.724411 -22.015747l12.724407 22.015747z" fill-rule="evenodd"/></g></svg>