<svg version="1.1" viewBox="0.0 0.0 476.3359580052493 456.7742782152231" fill="none" stroke="none" stroke-linecap="square" stroke-miterlimit="10" xmlns:xlink="http://www.w3.org/1999/xlink" xmlns="http://www.w3.org/2000/svg"><clipPath id="p.0"><path d="m0 0l476.33597 0l0 456.7743l-476.33597 0l0 -456.7743z" clip-rule="nonzero"/></clipPath><g clip-path="url(#p.0)"><path fill="#000000" fill-opacity="0.0" d="m0 0l476.33597 0l0 456.7743l-476.33597 0z" fill-rule="evenodd"/><path fill="#000000" fill-opacity="0.0" d="m36.47769 228.88452l0 0c0 -112.013794 89.66996 -202.81891 200.28346 -202.81891l0 0c53.118484 0 104.061356 21.368359 141.62181 59.404278c37.560425 38.035927 58.66165 89.6237 58.66165 143.41463l0 0c0 112.01376 -89.66995 202.81888 -200.28346 202.81888l0 0c-110.6135 0 -200.28346 -90.805115 -200.28346 -202.81888z" fill-rule="evenodd"/><path stroke="#93c47d" stroke-width="16.0" stroke-linejoin="round" stroke-linecap="butt" d="m36.47769 228.88452l0 0c0 -112.013794 89.66996 -202.81891 200.28346 -202.81891l0 0c53.118484 0 104.061356 21.368359 141.62181 59.404278c37.560425 38.035927 58.66165 89.6237 58.66165 143.41463l0 0c0 112.01376 -89.66995 202.81888 -200.28346 202.81888l0 0c-110.6135 0 -200.28346 -90.805115 -200.28346 -202.81888z" fill-rule="evenodd"/><path fill="#ffffff" d="m62.603638 228.88454l0 0c0 -97.402145 77.97296 -176.3622 174.15749 -176.3622l0 0c46.189438 0 90.487076 18.580963 123.147934 51.655296c32.66086 33.074333 51.009552 77.93275 51.009552 124.7069l0 0c0 97.402176 -77.97296 176.3622 -174.15749 176.3622l0 0c-96.184525 0 -174.15749 -78.96002 -174.15749 -176.3622z" fill-rule="evenodd"/><path stroke="#434343" stroke-width="16.0" stroke-linejoin="round" stroke-linecap="round" d="m62.603638 228.88454l0 0c0 -97.402145 77.97296 -176.3622 174.15749 -176.3622l0 0c46.189438 0 90.487076 18.580963 123.147934 51.655296c32.66086 33.074333 51.009552 77.93275 51.009552 124.7069l0 0c0 97.402176 -77.97296 176.3622 -174.15749 176.3622l0 0c-96.184525 0 -174.15749 -78.96002 -174.15749 -176.3622z" fill-rule="evenodd"/><path fill="#000000" fill-opacity="0.0" d="m132.8189 328.14697l131.81102 -204.50394" fill-rule="evenodd"/><path stroke="#434343" stroke-width="16.0" stroke-linejoin="round" stroke-linecap="round" d="m132.8189 328.14697l131.81102 -204.50394" fill-rule="evenodd"/><path fill="#000000" fill-opacity="0.0" d="m96.24147 329.5643l281.03937 -1.4173279" fill-rule="evenodd"/><path stroke="#434343" stroke-width="16.0" stroke-linejoin="round" stroke-linecap="round" d="m96.24147 329.5643l281.03937 -1.4173279" fill-rule="evenodd"/><path fill="#000000" fill-opacity="0.0" d="m350.8399 328.14697l-131.81104 -204.50394" fill-rule="evenodd"/><path stroke="#434343" stroke-width="16.0" stroke-linejoin="round" stroke-linecap="round" d="m350.8399 328.14697l-131.81104 -204.50394" fill-rule="evenodd"/><path fill="#434343" d="m185.42258 325.70078l55.700775 -96.34645l55.700806 96.34645z" fill-rule="evenodd"/></g></svg>