<svg width="519" height="519" xmlns="http://www.w3.org/2000/svg">
 <title/>
 <desc/>
 <defs>
  <radialGradient r="87.8884669%" id="radialGradient-1" fy="21.9311119%" fx="50%" cy="21.9311119%" cx="50%">
   <stop stop-color="#F25674" offset="0%"/>
   <stop stop-color="#D82D4E" offset="100%"/>
  </radialGradient>
 </defs>
 <g>
  <title>background</title>
  <rect fill="none" id="canvas_background" height="402" width="582" y="-1" x="-1"/>
 </g>
 <g>
  <title>Layer 1</title>
  <circle r="0" id="Oval" fill="url(#radialGradient-1)" cy="259.5" cx="259.5"/>
  <path id="Path" fill="#b2b2b2" d="m258.00012,408c-2.44842,0 -4.8966,-0.78471 -6.9485,-2.35412c-59.05253,-37.54823 -98.35709,-70.3417 -117.91367,-98.3804l-1.69678,-2.44385l-1.24164,-1.80521c-13.45853,-19.65706 -29.19953,-45.73863 -29.19953,-71.54738c0,-49.41238 39.74583,-89.46904 88.7748,-89.46904c27.14828,0 51.45031,12.28158 67.73434,31.63253l0.49073,0.58855c16.28436,-19.69014 40.80282,-32.22108 68.22534,-32.22108c49.02896,0 88.77479,40.05666 88.77479,89.46904c0,26.34089 -16.39681,52.96597 -30.02894,72.75503l-0.41223,0.59756l-1.69678,2.44385c-19.55658,28.0387 -58.86114,60.83217 -117.91367,98.3804c-2.0519,1.56941 -4.50008,2.35412 -6.94826,2.35412z"/>
 </g>
</svg>